<svg width="76" height="78" viewBox="0 0 76 78" fill="none" xmlns="http://www.w3.org/2000/svg">
<mask id="path-1-inside-1_356_1007" fill="white">
<path d="M16.8118 17.8726L16.7548 17.9821L20.0162 23.7686L16.8118 17.8726Z"/>
</mask>
<path d="M16.8118 17.8726L17.6904 17.395L16.7923 15.7426L15.9245 17.4112L16.8118 17.8726ZM16.7548 17.9821L15.8676 17.5208L15.6177 18.0013L15.8836 18.4732L16.7548 17.9821ZM20.0162 23.7686L19.145 24.2596L20.8948 23.291L20.0162 23.7686ZM15.9245 17.4112L15.8676 17.5208L17.642 18.4435L17.699 18.3339L15.9245 17.4112ZM15.8836 18.4732L19.145 24.2596L20.8873 23.2775L17.6259 17.4911L15.8836 18.4732ZM20.8948 23.291L17.6904 17.395L15.9331 18.3501L19.1376 24.2461L20.8948 23.291Z" fill="#1C6FF4" mask="url(#path-1-inside-1_356_1007)"/>
<path d="M74.6333 77.1301H49.5644L42.7981 64.7825L42.6558 64.5228H42.3596H10.5356L1.35634 48.4178H33.1496H33.9907L33.5888 47.6789L20.4555 23.5296L20.4555 23.5295L17.2511 17.6336L16.802 16.8073L16.7367 16.9329L7.95409 1.37695H33.5096L74.6333 77.1301Z" stroke="#1C6FF4"/>
</svg>
