<svg width="331" height="78" viewBox="0 0 331 78" fill="none" xmlns="http://www.w3.org/2000/svg">
<path d="M103.726 70.3925V76.7532H80.4793V58.4427H23.4656V76.7532H0V0H70.1733C100.214 0 103.726 2.63019 103.726 29.1644C103.726 40.5662 100.986 44.4063 94.6253 47.4748C100.986 50.7626 103.726 52.1916 103.726 70.3925ZM80.3697 19.1872H23.4656V39.2511H80.3697V19.1872Z" fill="#353535"/>
<path d="M330.761 0.876709L293.307 77.6299H266.006L250.326 33.4428L234.646 77.6299H207.454L170 0.876709H193.466L221.709 53.0683L239.801 0.876709H260.961L279.052 53.0683L307.296 0.876709H330.761Z" fill="#353535"/>
<path d="M131.812 17.8721L131.755 17.9817L135.016 23.7681L131.812 17.8721Z" fill="#353535"/>
<path d="M148.807 0.876709H122.098L131.755 17.9817L131.812 17.8721L135.016 23.7681L148.15 47.9176H115.496L125.245 65.0225H157.36L164.268 77.6299H190.474L148.807 0.876709Z" fill="#353535"/>
</svg>
