<svg width="193" height="40" viewBox="0 0 193 40" fill="none" xmlns="http://www.w3.org/2000/svg">
<path d="M119.37 29.69V31.7995H111.855V25.7268H93.4247V31.7995H85.8391V6.34448H108.524C118.235 6.34448 119.37 7.21678 119.37 16.0168C119.37 19.7982 118.484 21.0717 116.428 22.0894C118.484 23.1797 119.37 23.6537 119.37 29.69ZM111.82 12.7079H93.4247V19.362H111.82V12.7079Z" fill="#1C6FF4"/>
<path d="M192.839 6.63525L180.732 32.0902H171.906L166.837 17.4357L161.768 32.0902H152.978L140.871 6.63525H148.457L157.587 23.9445L163.435 6.63525H170.275L176.123 23.9445L185.254 6.63525H192.839Z" fill="#1C6FF4"/>
<path d="M128.449 12.2716L128.43 12.308L129.485 14.227L128.449 12.2716Z" fill="#1C6FF4"/>
<path d="M133.943 6.63525H125.309L128.43 12.3081L128.449 12.2717L129.485 14.2271L133.73 22.2362H123.175L126.326 27.909H136.708L138.941 32.0902H147.412L133.943 6.63525Z" fill="#1C6FF4"/>
<path d="M89.2556 2.74045V2.22435C89.2556 2.15893 89.3066 2.10659 89.369 2.10659H89.5334C89.6014 2.10659 89.651 2.16329 89.6467 2.23307C89.5915 3.14316 89.2996 3.19986 87.8542 3.19986C86.1253 3.19986 86.0446 3.11699 86.0446 1.5992C86.0446 0.0814141 86.1267 0 87.8556 0C89.301 0 89.5929 0.056699 89.6482 0.966792C89.6524 1.03658 89.6014 1.09327 89.5348 1.09327H89.3704C89.3066 1.09327 89.257 1.04094 89.257 0.975515V0.455046C89.257 0.389624 89.2018 0.334379 89.138 0.334379H86.5703C86.5065 0.334379 86.4569 0.391078 86.4569 0.455046V2.74045C86.4569 2.80588 86.5079 2.85676 86.5703 2.85676H89.1366C89.2004 2.85676 89.2556 2.80442 89.2556 2.74045Z" fill="#353535"/>
<path d="M93.7449 2.82333V3.0007C93.7449 3.06612 93.6896 3.11846 93.6272 3.11846H93.4459C93.3821 3.11846 93.3311 3.06612 93.3311 3.0007V2.22435C93.3311 2.15893 93.2801 2.1066 93.2163 2.1066H90.8158C90.752 2.1066 90.701 2.15893 90.701 2.22435V3.0007C90.701 3.06612 90.65 3.11846 90.5862 3.11846H90.4048C90.3411 3.11846 90.29 3.06612 90.29 3.0007V0.199181C90.29 0.133759 90.3411 0.0814209 90.4048 0.0814209H92.4851C93.6683 0.0814209 93.7449 0.164289 93.7449 1.09183C93.7449 1.46546 93.7193 1.70825 93.5592 1.84636C93.4997 1.89434 93.504 1.98011 93.5592 2.02809C93.7193 2.16184 93.7449 2.40899 93.7449 2.82188V2.82333ZM93.3311 1.653V0.537921C93.3311 0.472499 93.2801 0.420162 93.2163 0.420162H90.8158C90.752 0.420162 90.701 0.472499 90.701 0.537921V1.653C90.701 1.71842 90.752 1.77076 90.8158 1.77076H93.2163C93.2801 1.77076 93.3311 1.71842 93.3311 1.653Z" fill="#353535"/>
<path d="M97.7014 0.420162H94.9707C94.907 0.420162 94.8559 0.472499 94.8559 0.537921V1.31426C94.8559 1.37968 94.907 1.43202 94.9707 1.43202H97.6121C97.6759 1.43202 97.7255 1.48436 97.7255 1.54833V1.653C97.7255 1.71842 97.6745 1.77076 97.6121 1.77076H94.9707C94.907 1.77076 94.8559 1.8231 94.8559 1.88852V2.66486C94.8559 2.73029 94.907 2.78262 94.9707 2.78262H97.7014C97.7652 2.78262 97.8162 2.83496 97.8162 2.89893V3.0036C97.8162 3.06903 97.7652 3.12136 97.7014 3.12136H94.5612C94.4974 3.12136 94.4464 3.06903 94.4464 3.0036V0.19918C94.4464 0.133759 94.4974 0.0814209 94.5612 0.0814209H97.7014C97.7652 0.0814209 97.8162 0.133759 97.8162 0.19918V0.303856C97.8162 0.369278 97.7652 0.421615 97.7014 0.421615V0.420162Z" fill="#353535"/>
<path d="M89.5434 39.041V39.2183C89.5434 39.2838 89.4881 39.3361 89.4258 39.3361H89.2444C89.1806 39.3361 89.1296 39.2838 89.1296 39.2183V38.442C89.1296 38.3766 89.0786 38.3257 89.0148 38.3257H86.6129C86.5491 38.3257 86.4981 38.378 86.4981 38.442V39.2183C86.4981 39.2838 86.4471 39.3361 86.3833 39.3361H86.2019C86.1382 39.3361 86.0872 39.2838 86.0872 39.2183V36.4168C86.0872 36.3514 86.1382 36.2991 86.2019 36.2991H88.2822C89.4654 36.2991 89.542 36.3819 89.542 37.3095C89.542 37.6831 89.5165 37.9259 89.3563 38.064C89.2968 38.112 89.3011 38.1978 89.3563 38.2457C89.5165 38.3795 89.542 38.6266 89.542 39.0395L89.5434 39.041ZM89.1296 37.8707V36.7556C89.1296 36.6902 89.0786 36.6378 89.0148 36.6378H86.6129C86.5491 36.6378 86.4981 36.6902 86.4981 36.7556V37.8707C86.4981 37.9361 86.5491 37.9884 86.6129 37.9884H89.0134C89.0772 37.9884 89.1282 37.9361 89.1282 37.8707H89.1296Z" fill="#353535"/>
<path d="M93.4999 36.638H90.7692C90.7054 36.638 90.6558 36.6903 90.6558 36.7557V37.5321C90.6558 37.5975 90.7068 37.6498 90.7692 37.6498H93.4106C93.4744 37.6498 93.5254 37.7022 93.5254 37.7676V37.8723C93.5254 37.9377 93.4744 37.99 93.4106 37.99H90.7692C90.7054 37.99 90.6558 38.0424 90.6558 38.1078V38.8841C90.6558 38.9495 90.7068 39.0004 90.7692 39.0004H93.4999C93.5636 39.0004 93.6132 39.0528 93.6132 39.1182V39.2229C93.6132 39.2883 93.5622 39.3406 93.4999 39.3406H90.3582C90.2945 39.3406 90.2449 39.2883 90.2449 39.2229V36.4213C90.2449 36.3559 90.2959 36.3036 90.3582 36.3036H93.4999C93.5636 36.3036 93.6132 36.3559 93.6132 36.4213V36.526C93.6132 36.5914 93.5622 36.6438 93.4999 36.6438V36.638Z" fill="#353535"/>
<path d="M97.2622 37.7267C97.6094 37.8692 97.727 38.1134 97.727 38.4943C97.727 39.166 97.4776 39.4175 95.9216 39.4175C94.455 39.4175 94.1461 39.1965 94.112 38.615C94.1078 38.5496 94.1631 38.4943 94.2268 38.4943H94.4125C94.472 38.4943 94.5187 38.538 94.5258 38.599C94.5556 38.9421 94.7922 39.0846 95.9202 39.0846C97.1502 39.0846 97.3146 38.9159 97.3146 38.4943C97.3146 38.0727 97.1502 37.9041 95.916 37.9041C95.2443 37.9041 94.9099 37.8736 94.5712 37.7267C94.2793 37.593 94.1744 37.3705 94.1744 37.0594C94.1744 36.4692 94.4366 36.2177 95.9202 36.2177C97.2905 36.2177 97.6108 36.4343 97.6533 36.9329C97.6576 37.0027 97.6065 37.0594 97.5385 37.0594H97.3529C97.2976 37.0594 97.2509 37.0158 97.2424 36.9591C97.2041 36.6858 96.9717 36.552 95.9146 36.552C94.7356 36.552 94.5825 36.7207 94.5825 37.0594C94.5825 37.3982 94.7256 37.5668 95.9188 37.5668C96.633 37.5668 96.9207 37.5886 97.2594 37.7267H97.2622Z" fill="#353535"/>
<path d="M101.621 36.638H98.8904C98.8266 36.638 98.7756 36.6903 98.7756 36.7557V37.5321C98.7756 37.5975 98.8266 37.6498 98.8904 37.6498H101.532C101.596 37.6498 101.645 37.7022 101.645 37.7676V37.8723C101.645 37.9377 101.594 37.99 101.532 37.99H98.8904C98.8266 37.99 98.7756 38.0424 98.7756 38.1078V38.8841C98.7756 38.9495 98.8266 39.0004 98.8904 39.0004H101.621C101.685 39.0004 101.736 39.0528 101.736 39.1182V39.2229C101.736 39.2883 101.685 39.3406 101.621 39.3406H98.4809C98.4171 39.3406 98.3661 39.2883 98.3661 39.2229V36.4213C98.3661 36.3559 98.4171 36.3036 98.4809 36.3036H101.621C101.685 36.3036 101.736 36.3559 101.736 36.4213V36.526C101.736 36.5914 101.685 36.6438 101.621 36.6438V36.638Z" fill="#353535"/>
<path d="M105.405 39.2752L105.104 38.7198C105.083 38.6849 105.045 38.6588 105.002 38.6588H102.901C102.862 38.6588 102.82 38.6849 102.803 38.7198L102.498 39.2752C102.481 39.3144 102.443 39.3362 102.4 39.3362H102.219C102.13 39.3362 102.076 39.2403 102.117 39.1632L103.643 36.3617C103.664 36.3225 103.703 36.3007 103.745 36.3007H104.159C104.197 36.3007 104.24 36.3225 104.257 36.3617L105.783 39.1632C105.826 39.2417 105.77 39.3362 105.681 39.3362H105.504C105.461 39.3362 105.423 39.3144 105.402 39.2752H105.405ZM103.215 38.3302H104.695C104.784 38.3302 104.838 38.2299 104.797 38.1528L104.053 36.795C104.01 36.7121 103.897 36.7121 103.854 36.795L103.115 38.1528C103.072 38.2313 103.127 38.3302 103.217 38.3302H103.215Z" fill="#353535"/>
<path d="M109.751 39.041V39.2183C109.751 39.2838 109.7 39.3361 109.636 39.3361H109.45C109.387 39.3361 109.336 39.2838 109.336 39.2183V39.041C109.336 38.3213 109.306 38.3257 108.49 38.3257H106.82C106.757 38.3257 106.706 38.378 106.706 38.442V39.2183C106.706 39.2838 106.654 39.3361 106.591 39.3361H106.409C106.346 39.3361 106.295 39.2838 106.295 39.2183V36.4168C106.295 36.3514 106.346 36.2991 106.409 36.2991H108.49C109.673 36.2991 109.749 36.3819 109.749 37.3095C109.749 37.6831 109.724 37.9259 109.564 38.064C109.504 38.112 109.508 38.1978 109.564 38.2457C109.724 38.3795 109.749 38.6266 109.749 39.0395L109.751 39.041ZM106.822 37.987H108.491C109.307 37.987 109.337 37.9782 109.337 37.3109C109.337 36.6436 109.307 36.6393 108.491 36.6393H106.822C106.758 36.6393 106.707 36.6916 106.707 36.757V37.8721C106.707 37.9375 106.758 37.9899 106.822 37.9899V37.987Z" fill="#353535"/>
<path d="M113.893 38.3258C113.961 38.3258 114.01 38.3825 114.006 38.4508C113.951 39.3609 113.659 39.4176 112.214 39.4176C110.485 39.4176 110.404 39.3348 110.404 37.817C110.404 36.2992 110.485 36.2163 112.214 36.2163C113.659 36.2163 113.951 36.273 114.006 37.1831C114.01 37.2529 113.959 37.3096 113.893 37.3096H113.716C113.656 37.3096 113.605 37.2616 113.601 37.2005C113.554 36.5507 113.33 36.5507 112.215 36.5507C111.283 36.5507 110.816 36.9728 110.816 37.817C110.816 38.6612 111.283 39.0832 112.215 39.0832C113.336 39.0832 113.556 39.0832 113.601 38.4334C113.605 38.3723 113.656 38.3243 113.716 38.3243H113.893V38.3258Z" fill="#353535"/>
<path d="M117.812 36.3007H117.99C118.053 36.3007 118.107 36.353 118.107 36.4184V39.2199C118.107 39.2854 118.052 39.3377 117.99 39.3377H117.812C117.749 39.3377 117.695 39.2854 117.695 39.2199V38.1049C117.695 38.0394 117.644 37.9871 117.58 37.9871H115.18C115.116 37.9871 115.066 38.0394 115.066 38.1049V39.2199C115.066 39.2854 115.015 39.3377 114.951 39.3377H114.77C114.706 39.3377 114.657 39.2854 114.657 39.2199V36.4184C114.657 36.353 114.708 36.3007 114.77 36.3007H114.951C115.015 36.3007 115.066 36.353 115.066 36.4184V37.5335C115.066 37.5989 115.117 37.6513 115.18 37.6513H117.58C117.644 37.6513 117.695 37.5989 117.695 37.5335V36.4184C117.695 36.353 117.75 36.3007 117.812 36.3007Z" fill="#353535"/>
<path d="M124.103 39.2752L123.802 38.7198C123.781 38.6849 123.743 38.6588 123.7 38.6588H121.599C121.561 38.6588 121.518 38.6849 121.501 38.7198L121.196 39.2752C121.179 39.3144 121.141 39.3362 121.099 39.3362H120.917C120.828 39.3362 120.774 39.2403 120.815 39.1632L122.341 36.3617C122.363 36.3225 122.401 36.3007 122.443 36.3007H122.857C122.896 36.3007 122.938 36.3225 122.955 36.3617L124.481 39.1632C124.524 39.2417 124.468 39.3362 124.379 39.3362H124.202C124.16 39.3362 124.121 39.3144 124.1 39.2752H124.103ZM121.914 38.3302H123.393C123.482 38.3302 123.536 38.2299 123.495 38.1528L122.751 36.795C122.708 36.7121 122.595 36.7121 122.553 36.795L121.813 38.1528C121.77 38.2313 121.826 38.3302 121.915 38.3302H121.914Z" fill="#353535"/>
<path d="M128.238 36.3005H128.415C128.479 36.3005 128.533 36.3529 128.533 36.4183V39.2198C128.533 39.2852 128.477 39.3376 128.415 39.3376H128.005C127.976 39.3376 127.946 39.3245 127.92 39.3027L125.608 36.8777C125.535 36.8036 125.409 36.8559 125.409 36.9606V39.2198C125.409 39.2852 125.358 39.3376 125.295 39.3376H125.113C125.049 39.3376 124.998 39.2852 124.998 39.2198V36.4183C124.998 36.3529 125.049 36.3005 125.113 36.3005H125.527C125.557 36.3005 125.586 36.3136 125.608 36.3354L127.925 38.7589C127.997 38.8331 128.119 38.7807 128.119 38.6761V36.4168C128.119 36.3514 128.174 36.2991 128.236 36.2991L128.238 36.3005Z" fill="#353535"/>
<path d="M131.082 36.3005C132.807 36.3005 132.892 36.3834 132.892 37.8183C132.892 39.2532 132.807 39.3361 131.082 39.3361H129.387C129.323 39.3361 129.272 39.2838 129.272 39.2183V36.4168C129.272 36.3514 129.323 36.2991 129.387 36.2991H131.082V36.3005ZM131.082 38.9974C132.012 38.9974 132.476 38.6058 132.476 37.8227C132.476 37.0396 132.012 36.6451 131.082 36.6393H129.797C129.733 36.6393 129.682 36.6916 129.682 36.757V38.8825C129.682 38.9479 129.733 38.9988 129.797 38.9988H131.082V38.9974Z" fill="#353535"/>
<path d="M138.832 39.2752L138.531 38.7198C138.51 38.6849 138.472 38.6588 138.429 38.6588H136.328C136.29 38.6588 136.247 38.6849 136.23 38.7198L135.925 39.2752C135.908 39.3144 135.87 39.3362 135.828 39.3362H135.646C135.557 39.3362 135.503 39.2403 135.544 39.1632L137.07 36.3617C137.092 36.3225 137.13 36.3007 137.172 36.3007H137.586C137.625 36.3007 137.667 36.3225 137.684 36.3617L139.21 39.1632C139.253 39.2417 139.197 39.3362 139.108 39.3362H138.931C138.889 39.3362 138.85 39.3144 138.829 39.2752H138.832ZM136.643 38.3302H138.122C138.211 38.3302 138.265 38.2299 138.224 38.1528L137.48 36.795C137.437 36.7121 137.324 36.7121 137.282 36.795L136.542 38.1528C136.499 38.2313 136.555 38.3302 136.644 38.3302H136.643Z" fill="#353535"/>
<path d="M141.537 36.3005C143.262 36.3005 143.347 36.3834 143.347 37.8183C143.347 39.2532 143.262 39.3361 141.537 39.3361H139.842C139.778 39.3361 139.727 39.2838 139.727 39.2183V36.4168C139.727 36.3514 139.778 36.2991 139.842 36.2991H141.537V36.3005ZM141.537 38.9974C142.467 38.9974 142.931 38.6058 142.931 37.8227C142.931 37.0396 142.467 36.6451 141.537 36.6393H140.252C140.188 36.6393 140.137 36.6916 140.137 36.757V38.8825C140.137 38.9479 140.188 38.9988 140.252 38.9988H141.537V38.9974Z" fill="#353535"/>
<path d="M146.855 36.3007H147.007C147.092 36.3007 147.147 36.3966 147.109 36.4737L145.664 39.2752C145.642 39.3101 145.604 39.3362 145.562 39.3362H145.291C145.248 39.3362 145.206 39.3101 145.189 39.2752L143.743 36.4737C143.705 36.3952 143.76 36.3007 143.845 36.3007H143.997C144.04 36.3007 144.078 36.3268 144.099 36.3617L145.325 38.7387C145.367 38.8216 145.485 38.8216 145.528 38.7387L146.753 36.3617C146.775 36.3268 146.813 36.3007 146.855 36.3007Z" fill="#353535"/>
<path d="M148.031 36.4168V39.2183C148.031 39.2838 147.98 39.3361 147.917 39.3361H147.735C147.671 39.3361 147.62 39.2838 147.62 39.2183V36.4168C147.62 36.3514 147.671 36.2991 147.735 36.2991H147.917C147.98 36.2991 148.031 36.3514 148.031 36.4168Z" fill="#353535"/>
<path d="M151.806 37.7267C152.154 37.8692 152.271 38.1134 152.271 38.4943C152.271 39.166 152.022 39.4175 150.466 39.4175C148.999 39.4175 148.69 39.1965 148.656 38.615C148.652 38.5496 148.707 38.4943 148.771 38.4943H148.957C149.016 38.4943 149.063 38.538 149.072 38.599C149.101 38.9421 149.338 39.0846 150.466 39.0846C151.696 39.0846 151.86 38.9159 151.86 38.4943C151.86 38.0727 151.696 37.9041 150.462 37.9041C149.79 37.9041 149.456 37.8736 149.117 37.7267C148.825 37.593 148.72 37.3705 148.72 37.0594C148.72 36.4692 148.982 36.2177 150.466 36.2177C151.836 36.2177 152.157 36.4343 152.199 36.9329C152.203 37.0027 152.152 37.0594 152.086 37.0594H151.9C151.845 37.0594 151.798 37.0158 151.789 36.9591C151.751 36.6858 151.519 36.552 150.462 36.552C149.283 36.552 149.13 36.7207 149.13 37.0594C149.13 37.3982 149.273 37.5668 150.466 37.5668C151.18 37.5668 151.468 37.5886 151.806 37.7267Z" fill="#353535"/>
<path d="M154.672 39.4176C152.943 39.4176 152.862 39.3348 152.862 37.817C152.862 36.2992 152.943 36.2163 154.672 36.2163C156.401 36.2163 156.481 36.2992 156.481 37.817C156.481 39.3348 156.396 39.4176 154.672 39.4176ZM153.273 37.817C153.273 38.6612 153.739 39.0832 154.672 39.0832C155.604 39.0832 156.069 38.6626 156.066 37.8213C156.063 36.98 155.599 36.5565 154.672 36.5507C153.745 36.5449 153.279 36.967 153.273 37.817Z" fill="#353535"/>
<path d="M160.625 39.041V39.2183C160.625 39.2838 160.574 39.3361 160.51 39.3361H160.325C160.261 39.3361 160.21 39.2838 160.21 39.2183V39.041C160.21 38.3213 160.18 38.3257 159.364 38.3257H157.694C157.631 38.3257 157.58 38.378 157.58 38.442V39.2183C157.58 39.2838 157.529 39.3361 157.466 39.3361H157.285C157.221 39.3361 157.17 39.2838 157.17 39.2183V36.4168C157.17 36.3514 157.221 36.2991 157.285 36.2991H159.365C160.548 36.2991 160.625 36.3819 160.625 37.3095C160.625 37.6831 160.599 37.9259 160.439 38.064C160.38 38.112 160.384 38.1978 160.439 38.2457C160.599 38.3795 160.625 38.6266 160.625 39.0395V39.041ZM157.696 37.987H159.365C160.181 37.987 160.211 37.9782 160.211 37.3109C160.211 36.6436 160.181 36.6393 159.365 36.6393H157.696C157.632 36.6393 157.581 36.6916 157.581 36.757V37.8721C157.581 37.9375 157.632 37.9899 157.696 37.9899V37.987Z" fill="#353535"/>
<path d="M164.455 36.4998L163.006 37.9871C162.984 38.0089 162.972 38.0394 162.972 38.07V39.2199C162.972 39.2854 162.921 39.3377 162.857 39.3377H162.675C162.612 39.3377 162.561 39.2854 162.561 39.2199V38.07C162.561 38.0394 162.548 38.0089 162.527 37.9871L161.081 36.4998C161.009 36.4257 161.06 36.3007 161.162 36.3007H161.331C161.36 36.3007 161.39 36.3137 161.411 36.3355L162.688 37.6411C162.731 37.6847 162.803 37.6847 162.848 37.6411L164.121 36.3355C164.146 36.3137 164.172 36.3007 164.206 36.3007H164.37C164.477 36.3007 164.526 36.4271 164.455 36.4998Z" fill="#353535"/>
<path d="M171.515 36.3007H171.671C171.752 36.3007 171.806 36.3835 171.782 36.4606L170.771 39.2577C170.754 39.3057 170.712 39.3362 170.665 39.3362H170.305C170.258 39.3362 170.211 39.3057 170.199 39.2577L169.476 37.1889C169.442 37.0843 169.299 37.0843 169.261 37.1889L168.542 39.2577C168.525 39.3057 168.483 39.3362 168.432 39.3362H168.076C168.025 39.3362 167.982 39.3057 167.965 39.2577L166.959 36.4606C166.93 36.3821 166.985 36.3007 167.066 36.3007H167.221C167.272 36.3007 167.315 36.3312 167.332 36.3792L168.157 38.6733C168.191 38.778 168.334 38.778 168.372 38.6733L169.171 36.3792C169.188 36.3312 169.231 36.3007 169.282 36.3007H169.455C169.506 36.3007 169.548 36.3312 169.565 36.3792L170.369 38.6733C170.403 38.778 170.546 38.778 170.584 38.6733L171.409 36.3792C171.422 36.3312 171.468 36.3007 171.515 36.3007Z" fill="#353535"/>
<path d="M172.72 36.4168V39.2183C172.72 39.2838 172.669 39.3361 172.605 39.3361H172.423C172.36 39.3361 172.309 39.2838 172.309 39.2183V36.4168C172.309 36.3514 172.36 36.2991 172.423 36.2991H172.605C172.669 36.2991 172.72 36.3514 172.72 36.4168Z" fill="#353535"/>
<path d="M176.697 36.3005H176.874C176.938 36.3005 176.992 36.3529 176.992 36.4183V39.2198C176.992 39.2852 176.937 39.3376 176.874 39.3376H176.465C176.435 39.3376 176.405 39.3245 176.38 39.3027L174.067 36.8777C173.995 36.8036 173.869 36.8559 173.869 36.9606V39.2198C173.869 39.2852 173.818 39.3376 173.754 39.3376H173.573C173.509 39.3376 173.458 39.2852 173.458 39.2198V36.4183C173.458 36.3529 173.509 36.3005 173.573 36.3005H173.987C174.016 36.3005 174.046 36.3136 174.067 36.3354L176.384 38.7589C176.456 38.8331 176.578 38.7807 176.578 38.6761V36.4168C176.578 36.3514 176.634 36.2991 176.697 36.2991V36.3005Z" fill="#353535"/>
<path d="M181.306 37.878C181.306 37.9086 181.306 37.9434 181.301 37.9609C181.297 39.3406 181.167 39.4176 179.496 39.4176C177.825 39.4176 177.686 39.3348 177.686 37.817C177.686 36.2992 177.767 36.2163 179.496 36.2163C180.849 36.2163 181.191 36.2686 181.276 37.0188C181.284 37.093 181.229 37.1526 181.161 37.1526H180.98C180.92 37.1526 180.873 37.109 180.865 37.0523C180.793 36.5492 180.518 36.5492 179.495 36.5492C178.562 36.5492 178.096 36.9713 178.096 37.8155C178.096 38.6597 178.562 39.0818 179.495 39.0818C180.729 39.0818 180.88 39.0949 180.889 38.2139C180.889 38.1484 180.838 38.0932 180.776 38.0932H179.279C179.215 38.0932 179.164 38.0409 179.164 37.9754V37.8751C179.164 37.8097 179.215 37.7545 179.279 37.7545H181.185C181.249 37.7545 181.303 37.8111 181.303 37.8751L181.306 37.878Z" fill="#353535"/>
<path d="M7.68985 34.2344H7.6505L4.50214 25.3406H0V38.9751H2.97518V28.5011H3.01457L6.43052 38.9592H8.70523L12.2865 28.5011H12.3258V38.9592H15.3011V25.3247H10.8146L7.68985 34.2344Z" fill="#6280E8"/>
<path d="M22.4705 25.3248L16.6224 38.9593H19.9125L21.038 36.0688H26.2879L27.4528 38.9593H30.8137L24.9656 25.3248H22.4705ZM21.9746 33.5278L23.6118 29.2873L25.2726 33.5278H21.9746Z" fill="#6280E8"/>
<path d="M29.2008 27.993H33.0576V38.9752H36.0328V27.993H39.8895V25.3248H29.2008V27.993Z" fill="#6280E8"/>
<path d="M51.7269 29.4791C51.7269 26.3028 49.3657 25.3419 46.6344 25.3419H41.4003V38.9764H44.3755V33.529H45.8474L48.673 38.9764H52.2464L48.8068 33.2193C49.6704 33.0802 50.4504 32.6182 50.9916 31.9251C51.5327 31.232 51.7952 30.3587 51.7269 29.4791ZM46.1307 30.9799H44.3755V27.883H46.3275C47.4137 27.883 48.6336 28.0974 48.6336 29.4712C48.6336 30.9482 47.2248 30.9799 46.1307 30.9799Z" fill="url(#paint0_linear_1034_3573)"/>
<path d="M56.7092 25.3419H53.734V38.9764H56.7092V25.3419Z" fill="#00C7F9"/>
<path d="M66.9435 31.7899L71.3197 25.3419H67.707L64.9364 30.1064L62.0556 25.3419H58.317L62.7798 31.8534L58.0573 39.0002H61.5834L64.7948 33.5131L68.1005 39.0002H71.8392L66.9435 31.7899Z" fill="#00C7F9"/>
<path d="M0.0313721 0V21.6151H21.4481V0H0.0313721ZM11.9243 17.8908C7.7606 17.8908 4.71458 15.1274 4.71458 10.8075C4.71458 6.4877 7.7606 3.72427 11.9243 3.72427C12.7755 3.69598 13.6223 3.85867 14.4036 4.2006C15.1849 4.54253 15.8812 5.05518 16.4423 5.70155L14.1754 7.56766C13.8647 7.20261 13.4758 6.91357 13.0381 6.72236C12.6004 6.53114 12.1253 6.44276 11.6488 6.46388C9.42138 6.46388 7.77637 8.28234 7.77637 10.7996C7.77637 13.3169 9.42138 15.1433 11.5465 15.1433C12.0911 15.1606 12.6309 15.0369 13.1146 14.7839C13.5982 14.5309 14.0095 14.157 14.3092 13.698L16.7571 15.5482C16.1964 16.3007 15.4648 16.9062 14.6237 17.3139C13.7827 17.7216 12.8569 17.9194 11.9243 17.8908Z" fill="#6280E8"/>
<path d="M35.1282 6.58154H33.1998V9.64672H34.9393C36.0098 9.64672 37.4107 9.60702 37.4107 8.13795C37.4107 6.66889 36.2065 6.58154 35.1282 6.58154Z" fill="#6280E8"/>
<path d="M24.912 0V21.6151H46.3288V0H24.912ZM37.4268 17.5493L34.6326 12.1575H33.1764V17.5493H30.2327V4.04985H35.4039C38.143 4.04985 40.4492 5.00276 40.4492 8.14734C40.5119 9.01021 40.2528 9.86558 39.7228 10.5457C39.1928 11.2259 38.4301 11.6818 37.5842 11.824L40.9844 17.5176L37.4268 17.5493Z" fill="#6280E8"/>
<path d="M49.7916 0V21.6151H71.2084V0H49.7916ZM65.2107 17.5493H55.7656V4.04985H64.8408V6.78945H58.7093V9.30671H64.5024V12.0622H58.7093V14.8097H65.1871L65.2107 17.5493Z" fill="#6280E8"/>
<defs>
<linearGradient id="paint0_linear_1034_3573" x1="41.4088" y1="29.8063" x2="53.8677" y2="29.8063" gradientUnits="userSpaceOnUse">
<stop stop-color="#6280E8"/>
<stop offset="1" stop-color="#00C7F9"/>
</linearGradient>
</defs>
</svg>
