<svg width="107" height="40" viewBox="0 0 107 40" fill="none" xmlns="http://www.w3.org/2000/svg">
<path d="M33.5307 29.69V31.7995H26.016V25.7268H7.58557V31.7995H0V6.34448H22.6844C32.3956 6.34448 33.5307 7.21678 33.5307 16.0168C33.5307 19.7982 32.645 21.0717 30.5888 22.0894C32.645 23.1797 33.5307 23.6537 33.5307 29.69ZM25.9805 12.7079H7.58557V19.362H25.9805V12.7079Z" fill="#1C6FF4"/>
<path d="M107 6.63525L94.8926 32.0902H86.0671L80.9982 17.4357L75.9294 32.0902H67.1393L55.0319 6.63525H62.6174L71.7476 23.9445L77.5958 6.63525H84.436L90.2843 23.9445L99.4144 6.63525H107Z" fill="#1C6FF4"/>
<path d="M42.6098 12.2716L42.5914 12.308L43.6457 14.227L42.6098 12.2716Z" fill="#1C6FF4"/>
<path d="M48.1038 6.63525H39.4696L42.5914 12.3081L42.6098 12.2717L43.6457 14.2271L47.8913 22.2362H37.3355L40.4871 27.909H50.8685L53.1018 32.0902H61.573L48.1038 6.63525Z" fill="#1C6FF4"/>
<path d="M3.41652 2.74045V2.22435C3.41652 2.15893 3.46754 2.10659 3.52989 2.10659H3.69427C3.76229 2.10659 3.81188 2.16329 3.80763 2.23307C3.75237 3.14316 3.46045 3.19986 2.01504 3.19986C0.286217 3.19986 0.205444 3.11699 0.205444 1.5992C0.205444 0.0814141 0.287634 0 2.01646 0C3.46187 0 3.75378 0.056699 3.80905 0.966792C3.8133 1.03658 3.76229 1.09327 3.69568 1.09327H3.5313C3.46754 1.09327 3.41794 1.04094 3.41794 0.975515V0.455046C3.41794 0.389624 3.36267 0.334379 3.2989 0.334379H0.731177C0.667409 0.334379 0.617811 0.391078 0.617811 0.455046V2.74045C0.617811 2.80588 0.668826 2.85676 0.731177 2.85676H3.29749C3.36126 2.85676 3.41652 2.80442 3.41652 2.74045Z" fill="#353535"/>
<path d="M7.9058 2.82333V3.0007C7.9058 3.06612 7.85054 3.11846 7.78818 3.11846H7.6068C7.54303 3.11846 7.49202 3.06612 7.49202 3.0007V2.22435C7.49202 2.15893 7.441 2.1066 7.37724 2.1066H4.97672C4.91295 2.1066 4.86194 2.15893 4.86194 2.22435V3.0007C4.86194 3.06612 4.81092 3.11846 4.74716 3.11846H4.56577C4.502 3.11846 4.45099 3.06612 4.45099 3.0007V0.199181C4.45099 0.133759 4.502 0.0814209 4.56577 0.0814209H6.64603C7.82928 0.0814209 7.9058 0.164289 7.9058 1.09183C7.9058 1.46546 7.88029 1.70825 7.72017 1.84636C7.66065 1.89434 7.6649 1.98011 7.72017 2.02809C7.88029 2.16184 7.9058 2.40899 7.9058 2.82188V2.82333ZM7.49202 1.653V0.537921C7.49202 0.472499 7.441 0.420162 7.37724 0.420162H4.97672C4.91295 0.420162 4.86194 0.472499 4.86194 0.537921V1.653C4.86194 1.71842 4.91295 1.77076 4.97672 1.77076H7.37724C7.441 1.77076 7.49202 1.71842 7.49202 1.653Z" fill="#353535"/>
<path d="M11.8623 0.420162H9.13162C9.06785 0.420162 9.01683 0.472499 9.01683 0.537921V1.31426C9.01683 1.37968 9.06785 1.43202 9.13162 1.43202H11.773C11.8368 1.43202 11.8864 1.48436 11.8864 1.54833V1.653C11.8864 1.71842 11.8354 1.77076 11.773 1.77076H9.13162C9.06785 1.77076 9.01683 1.8231 9.01683 1.88852V2.66486C9.01683 2.73029 9.06785 2.78262 9.13162 2.78262H11.8623C11.9261 2.78262 11.9771 2.83496 11.9771 2.89893V3.0036C11.9771 3.06903 11.9261 3.12136 11.8623 3.12136H8.72208C8.65831 3.12136 8.6073 3.06903 8.6073 3.0036V0.19918C8.6073 0.133759 8.65831 0.0814209 8.72208 0.0814209H11.8623C11.9261 0.0814209 11.9771 0.133759 11.9771 0.19918V0.303856C11.9771 0.369278 11.9261 0.421615 11.8623 0.421615V0.420162Z" fill="#353535"/>
<path d="M3.70422 39.041V39.2183C3.70422 39.2838 3.64895 39.3361 3.5866 39.3361H3.40521C3.34145 39.3361 3.29043 39.2838 3.29043 39.2183V38.442C3.29043 38.3766 3.23942 38.3257 3.17565 38.3257H0.773718C0.70995 38.3257 0.658936 38.378 0.658936 38.442V39.2183C0.658936 39.2838 0.607921 39.3361 0.544153 39.3361H0.362768C0.299 39.3361 0.247986 39.2838 0.247986 39.2183V36.4168C0.247986 36.3514 0.299 36.2991 0.362768 36.2991H2.44302C3.62628 36.2991 3.7028 36.3819 3.7028 37.3095C3.7028 37.6831 3.67729 37.9259 3.51716 38.064C3.45765 38.112 3.4619 38.1978 3.51716 38.2457C3.67729 38.3795 3.7028 38.6266 3.7028 39.0395L3.70422 39.041ZM3.29043 37.8707V36.7556C3.29043 36.6902 3.23942 36.6378 3.17565 36.6378H0.773718C0.70995 36.6378 0.658936 36.6902 0.658936 36.7556V37.8707C0.658936 37.9361 0.70995 37.9884 0.773718 37.9884H3.17423C3.238 37.9884 3.28901 37.9361 3.28901 37.8707H3.29043Z" fill="#353535"/>
<path d="M7.66071 36.638H4.93002C4.86625 36.638 4.81665 36.6903 4.81665 36.7557V37.5321C4.81665 37.5975 4.86767 37.6498 4.93002 37.6498H7.57143C7.6352 37.6498 7.68621 37.7022 7.68621 37.7676V37.8723C7.68621 37.9377 7.6352 37.99 7.57143 37.99H4.93002C4.86625 37.99 4.81665 38.0424 4.81665 38.1078V38.8841C4.81665 38.9495 4.86767 39.0004 4.93002 39.0004H7.66071C7.72448 39.0004 7.77407 39.0528 7.77407 39.1182V39.2229C7.77407 39.2883 7.72306 39.3406 7.66071 39.3406H4.51907C4.4553 39.3406 4.4057 39.2883 4.4057 39.2229V36.4213C4.4057 36.3559 4.45672 36.3036 4.51907 36.3036H7.66071C7.72448 36.3036 7.77407 36.3559 7.77407 36.4213V36.526C7.77407 36.5914 7.72306 36.6438 7.66071 36.6438V36.638Z" fill="#353535"/>
<path d="M11.423 37.7267C11.7702 37.8692 11.8878 38.1134 11.8878 38.4943C11.8878 39.166 11.6384 39.4175 10.0825 39.4175C8.6158 39.4175 8.30688 39.1965 8.27287 38.615C8.26862 38.5496 8.32389 38.4943 8.38766 38.4943H8.57329C8.63281 38.4943 8.67957 38.538 8.68666 38.599C8.71642 38.9421 8.95307 39.0846 10.0811 39.0846C11.3111 39.0846 11.4754 38.9159 11.4754 38.4943C11.4754 38.0727 11.3111 37.9041 10.0768 37.9041C9.40511 37.9041 9.07068 37.8736 8.732 37.7267C8.44009 37.593 8.33522 37.3705 8.33522 37.0594C8.33522 36.4692 8.59738 36.2177 10.0811 36.2177C11.4514 36.2177 11.7716 36.4343 11.8141 36.9329C11.8184 37.0027 11.7674 37.0594 11.6993 37.0594H11.5137C11.4584 37.0594 11.4117 37.0158 11.4032 36.9591C11.3649 36.6858 11.1325 36.552 10.0754 36.552C8.89638 36.552 8.74334 36.7207 8.74334 37.0594C8.74334 37.3982 8.88646 37.5668 10.0796 37.5668C10.7938 37.5668 11.0815 37.5886 11.4202 37.7267H11.423Z" fill="#353535"/>
<path d="M15.7819 36.638H13.0512C12.9875 36.638 12.9364 36.6903 12.9364 36.7557V37.5321C12.9364 37.5975 12.9875 37.6498 13.0512 37.6498H15.6926C15.7564 37.6498 15.806 37.7022 15.806 37.7676V37.8723C15.806 37.9377 15.755 37.99 15.6926 37.99H13.0512C12.9875 37.99 12.9364 38.0424 12.9364 38.1078V38.8841C12.9364 38.9495 12.9875 39.0004 13.0512 39.0004H15.7819C15.8457 39.0004 15.8967 39.0528 15.8967 39.1182V39.2229C15.8967 39.2883 15.8457 39.3406 15.7819 39.3406H12.6417C12.5779 39.3406 12.5269 39.2883 12.5269 39.2229V36.4213C12.5269 36.3559 12.5779 36.3036 12.6417 36.3036H15.7819C15.8457 36.3036 15.8967 36.3559 15.8967 36.4213V36.526C15.8967 36.5914 15.8457 36.6438 15.7819 36.6438V36.638Z" fill="#353535"/>
<path d="M19.5655 39.2752L19.265 38.7198C19.2438 38.6849 19.2055 38.6588 19.163 38.6588H17.0615C17.0232 38.6588 16.9807 38.6849 16.9637 38.7198L16.6591 39.2752C16.6421 39.3144 16.6038 39.3362 16.5613 39.3362H16.3799C16.2906 39.3362 16.2368 39.2403 16.2779 39.1632L17.8041 36.3617C17.8253 36.3225 17.8636 36.3007 17.9061 36.3007H18.3199C18.3581 36.3007 18.4006 36.3225 18.4176 36.3617L19.9438 39.1632C19.9863 39.2417 19.9311 39.3362 19.8418 39.3362H19.6647C19.6222 39.3362 19.5839 39.3144 19.5626 39.2752H19.5655ZM17.3761 38.3302H18.8555C18.9448 38.3302 18.9986 38.2299 18.9575 38.1528L18.2136 36.795C18.1711 36.7121 18.0577 36.7121 18.0152 36.795L17.2755 38.1528C17.233 38.2313 17.2882 38.3302 17.3775 38.3302H17.3761Z" fill="#353535"/>
<path d="M23.9116 39.041V39.2183C23.9116 39.2838 23.8606 39.3361 23.7968 39.3361H23.6112C23.5474 39.3361 23.4964 39.2838 23.4964 39.2183V39.041C23.4964 38.3213 23.4667 38.3257 22.6504 38.3257H20.9811C20.9173 38.3257 20.8663 38.378 20.8663 38.442V39.2183C20.8663 39.2838 20.8153 39.3361 20.7516 39.3361H20.5702C20.5064 39.3361 20.4554 39.2838 20.4554 39.2183V36.4168C20.4554 36.3514 20.5064 36.2991 20.5702 36.2991H22.6504C23.8337 36.2991 23.9102 36.3819 23.9102 37.3095C23.9102 37.6831 23.8847 37.9259 23.7246 38.064C23.665 38.112 23.6693 38.1978 23.7246 38.2457C23.8847 38.3795 23.9102 38.6266 23.9102 39.0395L23.9116 39.041ZM20.9825 37.987H22.6518C23.4681 37.987 23.4978 37.9782 23.4978 37.3109C23.4978 36.6436 23.4681 36.6393 22.6518 36.6393H20.9825C20.9188 36.6393 20.8677 36.6916 20.8677 36.757V37.8721C20.8677 37.9375 20.9188 37.9899 20.9825 37.9899V37.987Z" fill="#353535"/>
<path d="M28.0537 38.3258C28.1217 38.3258 28.1713 38.3825 28.1671 38.4508C28.1118 39.3609 27.8199 39.4176 26.3745 39.4176C24.6457 39.4176 24.5649 39.3348 24.5649 37.817C24.5649 36.2992 24.6457 36.2163 26.3745 36.2163C27.8199 36.2163 28.1118 36.273 28.1671 37.1831C28.1713 37.2529 28.1203 37.3096 28.0537 37.3096H27.8766C27.8171 37.3096 27.766 37.2616 27.7618 37.2005C27.715 36.5507 27.4911 36.5507 26.3759 36.5507C25.4435 36.5507 24.9772 36.9728 24.9772 37.817C24.9772 38.6612 25.4435 39.0832 26.3759 39.0832C27.4968 39.0832 27.7164 39.0832 27.7618 38.4334C27.766 38.3723 27.8171 38.3243 27.8766 38.3243H28.0537V38.3258Z" fill="#353535"/>
<path d="M31.9733 36.3007H32.1505C32.2142 36.3007 32.2681 36.353 32.2681 36.4184V39.2199C32.2681 39.2854 32.2128 39.3377 32.1505 39.3377H31.9733C31.9095 39.3377 31.8557 39.2854 31.8557 39.2199V38.1049C31.8557 38.0394 31.8047 37.9871 31.7409 37.9871H29.3404C29.2766 37.9871 29.227 38.0394 29.227 38.1049V39.2199C29.227 39.2854 29.176 39.3377 29.1123 39.3377H28.9309C28.8671 39.3377 28.8175 39.2854 28.8175 39.2199V36.4184C28.8175 36.353 28.8685 36.3007 28.9309 36.3007H29.1123C29.176 36.3007 29.227 36.353 29.227 36.4184V37.5335C29.227 37.5989 29.2781 37.6513 29.3404 37.6513H31.7409C31.8047 37.6513 31.8557 37.5989 31.8557 37.5335V36.4184C31.8557 36.353 31.911 36.3007 31.9733 36.3007Z" fill="#353535"/>
<path d="M38.2637 39.2752L37.9633 38.7198C37.942 38.6849 37.9038 38.6588 37.8613 38.6588H35.7598C35.7215 38.6588 35.679 38.6849 35.662 38.7198L35.3573 39.2752C35.3403 39.3144 35.302 39.3362 35.2595 39.3362H35.0781C34.9889 39.3362 34.935 39.2403 34.9761 39.1632L36.5023 36.3617C36.5235 36.3225 36.5618 36.3007 36.6043 36.3007H37.0181C37.0564 36.3007 37.0989 36.3225 37.1159 36.3617L38.6421 39.1632C38.6846 39.2417 38.6293 39.3362 38.54 39.3362H38.3629C38.3204 39.3362 38.2821 39.3144 38.2609 39.2752H38.2637ZM36.0743 38.3302H37.5538C37.643 38.3302 37.6969 38.2299 37.6558 38.1528L36.9118 36.795C36.8693 36.7121 36.7559 36.7121 36.7134 36.795L35.9737 38.1528C35.9312 38.2313 35.9865 38.3302 36.0758 38.3302H36.0743Z" fill="#353535"/>
<path d="M42.3987 36.3005H42.5758C42.6396 36.3005 42.6934 36.3529 42.6934 36.4183V39.2198C42.6934 39.2852 42.6381 39.3376 42.5758 39.3376H42.1663C42.1365 39.3376 42.1067 39.3245 42.0812 39.3027L39.7686 36.8777C39.6963 36.8036 39.5702 36.8559 39.5702 36.9606V39.2198C39.5702 39.2852 39.5192 39.3376 39.4554 39.3376H39.274C39.2103 39.3376 39.1592 39.2852 39.1592 39.2198V36.4183C39.1592 36.3529 39.2103 36.3005 39.274 36.3005H39.6878C39.7176 36.3005 39.7473 36.3136 39.7686 36.3354L42.0855 38.7589C42.1578 38.8331 42.2796 38.7807 42.2796 38.6761V36.4168C42.2796 36.3514 42.3349 36.2991 42.3972 36.2991L42.3987 36.3005Z" fill="#353535"/>
<path d="M45.2428 36.3005C46.9673 36.3005 47.0524 36.3834 47.0524 37.8183C47.0524 39.2532 46.9673 39.3361 45.2428 39.3361H43.5479C43.4842 39.3361 43.4332 39.2838 43.4332 39.2183V36.4168C43.4332 36.3514 43.4842 36.2991 43.5479 36.2991H45.2428V36.3005ZM45.2428 38.9974C46.1724 38.9974 46.6372 38.6058 46.6372 37.8227C46.6372 37.0396 46.1724 36.6451 45.2428 36.6393H43.9575C43.8937 36.6393 43.8427 36.6916 43.8427 36.757V38.8825C43.8427 38.9479 43.8937 38.9988 43.9575 38.9988H45.2428V38.9974Z" fill="#353535"/>
<path d="M52.9927 39.2752L52.6923 38.7198C52.671 38.6849 52.6328 38.6588 52.5903 38.6588H50.4888C50.4505 38.6588 50.408 38.6849 50.391 38.7198L50.0863 39.2752C50.0693 39.3144 50.031 39.3362 49.9885 39.3362H49.8071C49.7179 39.3362 49.664 39.2403 49.7051 39.1632L51.2313 36.3617C51.2526 36.3225 51.2908 36.3007 51.3333 36.3007H51.7471C51.7854 36.3007 51.8279 36.3225 51.8449 36.3617L53.3711 39.1632C53.4136 39.2417 53.3583 39.3362 53.269 39.3362H53.0919C53.0494 39.3362 53.0111 39.3144 52.9899 39.2752H52.9927ZM50.8033 38.3302H52.2828C52.372 38.3302 52.4259 38.2299 52.3848 38.1528L51.6408 36.795C51.5983 36.7121 51.485 36.7121 51.4424 36.795L50.7027 38.1528C50.6602 38.2313 50.7155 38.3302 50.8048 38.3302H50.8033Z" fill="#353535"/>
<path d="M55.6979 36.3005C57.4225 36.3005 57.5075 36.3834 57.5075 37.8183C57.5075 39.2532 57.4225 39.3361 55.6979 39.3361H54.0031C53.9393 39.3361 53.8883 39.2838 53.8883 39.2183V36.4168C53.8883 36.3514 53.9393 36.2991 54.0031 36.2991H55.6979V36.3005ZM55.6979 38.9974C56.6275 38.9974 57.0923 38.6058 57.0923 37.8227C57.0923 37.0396 56.6275 36.6451 55.6979 36.6393H54.4126C54.3489 36.6393 54.2978 36.6916 54.2978 36.757V38.8825C54.2978 38.9479 54.3489 38.9988 54.4126 38.9988H55.6979V38.9974Z" fill="#353535"/>
<path d="M61.0161 36.3007H61.1678C61.2528 36.3007 61.3081 36.3966 61.2698 36.4737L59.8244 39.2752C59.8031 39.3101 59.7649 39.3362 59.7224 39.3362H59.4517C59.4092 39.3362 59.3667 39.3101 59.3497 39.2752L57.9043 36.4737C57.866 36.3952 57.9213 36.3007 58.0063 36.3007H58.1579C58.2004 36.3007 58.2387 36.3268 58.2599 36.3617L59.4857 38.7387C59.5282 38.8216 59.6458 38.8216 59.6883 38.7387L60.9141 36.3617C60.9354 36.3268 60.9736 36.3007 61.0161 36.3007Z" fill="#353535"/>
<path d="M62.1923 36.4168V39.2183C62.1923 39.2838 62.1413 39.3361 62.0775 39.3361H61.8962C61.8324 39.3361 61.7814 39.2838 61.7814 39.2183V36.4168C61.7814 36.3514 61.8324 36.2991 61.8962 36.2991H62.0775C62.1413 36.2991 62.1923 36.3514 62.1923 36.4168Z" fill="#353535"/>
<path d="M65.9674 37.7267C66.3146 37.8692 66.4322 38.1134 66.4322 38.4943C66.4322 39.166 66.1828 39.4175 64.6268 39.4175C63.1602 39.4175 62.8513 39.1965 62.8172 38.615C62.813 38.5496 62.8683 38.4943 62.932 38.4943H63.1177C63.1772 38.4943 63.2239 38.538 63.2324 38.599C63.2622 38.9421 63.4989 39.0846 64.6268 39.0846C65.8569 39.0846 66.0212 38.9159 66.0212 38.4943C66.0212 38.0727 65.8569 37.9041 64.6226 37.9041C63.9509 37.9041 63.6165 37.8736 63.2778 37.7267C62.9859 37.593 62.881 37.3705 62.881 37.0594C62.881 36.4692 63.1432 36.2177 64.6268 36.2177C65.9971 36.2177 66.3174 36.4343 66.3599 36.9329C66.3642 37.0027 66.3132 37.0594 66.2465 37.0594H66.0609C66.0056 37.0594 65.9589 37.0158 65.9504 36.9591C65.9121 36.6858 65.6797 36.552 64.6226 36.552C63.4436 36.552 63.2905 36.7207 63.2905 37.0594C63.2905 37.3982 63.4337 37.5668 64.6268 37.5668C65.341 37.5668 65.6287 37.5886 65.9674 37.7267Z" fill="#353535"/>
<path d="M68.8327 39.4176C67.1038 39.4176 67.0231 39.3348 67.0231 37.817C67.0231 36.2992 67.1038 36.2163 68.8327 36.2163C70.5615 36.2163 70.6423 36.2992 70.6423 37.817C70.6423 39.3348 70.5572 39.4176 68.8327 39.4176ZM67.434 37.817C67.434 38.6612 67.9002 39.0832 68.8327 39.0832C69.7651 39.0832 70.2299 38.6626 70.2271 37.8213C70.2242 36.98 69.7594 36.5565 68.8327 36.5507C67.9059 36.5449 67.4397 36.967 67.434 37.817Z" fill="#353535"/>
<path d="M74.7857 39.041V39.2183C74.7857 39.2838 74.7347 39.3361 74.671 39.3361H74.4853C74.4216 39.3361 74.3705 39.2838 74.3705 39.2183V39.041C74.3705 38.3213 74.3408 38.3257 73.5246 38.3257H71.8552C71.7915 38.3257 71.7405 38.378 71.7405 38.442V39.2183C71.7405 39.2838 71.6895 39.3361 71.6271 39.3361H71.4457C71.3819 39.3361 71.3309 39.2838 71.3309 39.2183V36.4168C71.3309 36.3514 71.3819 36.2991 71.4457 36.2991H73.526C74.7092 36.2991 74.7857 36.3819 74.7857 37.3095C74.7857 37.6831 74.7602 37.9259 74.6001 38.064C74.5406 38.112 74.5448 38.1978 74.6001 38.2457C74.7602 38.3795 74.7857 38.6266 74.7857 39.0395V39.041ZM71.8567 37.987H73.526C74.3422 37.987 74.372 37.9782 74.372 37.3109C74.372 36.6436 74.3422 36.6393 73.526 36.6393H71.8567C71.7929 36.6393 71.7419 36.6916 71.7419 36.757V37.8721C71.7419 37.9375 71.7929 37.9899 71.8567 37.9899V37.987Z" fill="#353535"/>
<path d="M78.6161 36.4998L77.1665 37.9871C77.1452 38.0089 77.1324 38.0394 77.1324 38.07V39.2199C77.1324 39.2854 77.0814 39.3377 77.0177 39.3377H76.8363C76.7725 39.3377 76.7215 39.2854 76.7215 39.2199V38.07C76.7215 38.0394 76.7087 38.0089 76.6875 37.9871L75.2421 36.4998C75.1698 36.4257 75.2208 36.3007 75.3228 36.3007H75.4915C75.5212 36.3007 75.551 36.3137 75.5722 36.3355L76.849 37.6411C76.8915 37.6847 76.9638 37.6847 77.0092 37.6411L78.2817 36.3355C78.3072 36.3137 78.3327 36.3007 78.3667 36.3007H78.5311C78.6374 36.3007 78.687 36.4271 78.6161 36.4998Z" fill="#353535"/>
<path d="M85.676 36.3007H85.8319C85.9126 36.3007 85.9665 36.3835 85.9424 36.4606L84.932 39.2577C84.915 39.3057 84.8725 39.3362 84.8257 39.3362H84.4658C84.419 39.3362 84.3723 39.3057 84.3595 39.2577L83.6368 37.1889C83.6028 37.0843 83.4597 37.0843 83.4214 37.1889L82.703 39.2577C82.686 39.3057 82.6435 39.3362 82.5924 39.3362H82.2368C82.1857 39.3362 82.1432 39.3057 82.1262 39.2577L81.1201 36.4606C81.0903 36.3821 81.1456 36.3007 81.2264 36.3007H81.3823C81.4333 36.3007 81.4758 36.3312 81.4928 36.3792L82.3175 38.6733C82.3515 38.778 82.4947 38.778 82.5329 38.6733L83.3321 36.3792C83.3491 36.3312 83.3917 36.3007 83.4427 36.3007H83.6156C83.6666 36.3007 83.7091 36.3312 83.7261 36.3792L84.5296 38.6733C84.5636 38.778 84.7067 38.778 84.745 38.6733L85.5697 36.3792C85.5824 36.3312 85.6292 36.3007 85.676 36.3007Z" fill="#353535"/>
<path d="M86.8805 36.4168V39.2183C86.8805 39.2838 86.8295 39.3361 86.7657 39.3361H86.5843C86.5206 39.3361 86.4695 39.2838 86.4695 39.2183V36.4168C86.4695 36.3514 86.5206 36.2991 86.5843 36.2991H86.7657C86.8295 36.2991 86.8805 36.3514 86.8805 36.4168Z" fill="#353535"/>
<path d="M90.8582 36.3005H91.0353C91.0991 36.3005 91.1529 36.3529 91.1529 36.4183V39.2198C91.1529 39.2852 91.0977 39.3376 91.0353 39.3376H90.6258C90.596 39.3376 90.5663 39.3245 90.5408 39.3027L88.2281 36.8777C88.1558 36.8036 88.0297 36.8559 88.0297 36.9606V39.2198C88.0297 39.2852 87.9787 39.3376 87.9149 39.3376H87.7336C87.6698 39.3376 87.6188 39.2852 87.6188 39.2198V36.4183C87.6188 36.3529 87.6698 36.3005 87.7336 36.3005H88.1473C88.1771 36.3005 88.2069 36.3136 88.2281 36.3354L90.545 38.7589C90.6173 38.8331 90.7392 38.7807 90.7392 38.6761V36.4168C90.7392 36.3514 90.7944 36.2991 90.8582 36.2991V36.3005Z" fill="#353535"/>
<path d="M95.4665 37.878C95.4665 37.9086 95.4665 37.9434 95.4622 37.9609C95.458 39.3406 95.3276 39.4176 93.6569 39.4176C91.9862 39.4176 91.8473 39.3348 91.8473 37.817C91.8473 36.2992 91.9281 36.2163 93.6569 36.2163C95.0102 36.2163 95.3517 36.2686 95.4367 37.0188C95.4452 37.093 95.39 37.1526 95.3219 37.1526H95.1406C95.081 37.1526 95.0343 37.109 95.0258 37.0523C94.9535 36.5492 94.6786 36.5492 93.6555 36.5492C92.723 36.5492 92.2568 36.9713 92.2568 37.8155C92.2568 38.6597 92.723 39.0818 93.6555 39.0818C94.8897 39.0818 95.0414 39.0949 95.0499 38.2139C95.0499 38.1484 94.9988 38.0932 94.9365 38.0932H93.4401C93.3763 38.0932 93.3253 38.0409 93.3253 37.9754V37.8751C93.3253 37.8097 93.3763 37.7545 93.4401 37.7545H95.346C95.4098 37.7545 95.4636 37.8111 95.4636 37.8751L95.4665 37.878Z" fill="#353535"/>
</svg>
