<svg width="19" height="30" viewBox="0 0 19 30" fill="none" xmlns="http://www.w3.org/2000/svg">
<path d="M8.00003 8.84326C8.00003 7.83008 8.81394 7 9.80739 7C10.8032 7 11.6147 7.83008 11.6147 8.84326L11.6147 10.7427C11.6147 11.7559 10.8008 12.5859 9.80739 12.5859C8.81394 12.5859 8.00003 11.7559 8.00003 10.7427L8.00003 8.84326Z" fill="#1C6FF4"/>
<path d="M6.98043 0.304992C5.37415 0.756652 3.93545 1.63312 2.78879 2.80255C1.06761 4.55792 -4.56712e-05 6.9798 -4.59043e-05 9.64581L-4.68368e-05 20.3123C-4.70699e-05 22.9783 1.06761 25.4002 2.78879 27.1556C4.50997 28.9109 6.88467 29.9998 9.49876 29.9998C12.1104 29.9998 14.4875 28.9109 16.2087 27.1556C17.9299 25.4002 18.9976 22.9759 18.9976 20.3123L18.9976 9.64825C18.9976 6.98224 17.9299 4.56036 16.2087 2.80499C14.8706 1.44025 13.1398 0.478332 11.208 0.117004C10.0398 -0.102723 8.05766 0.00225734 6.98043 0.304992ZM4.37591 4.4212C5.69014 3.08087 7.50468 2.24591 9.49876 2.24591C11.4928 2.24591 13.305 3.07843 14.6216 4.4212C15.9358 5.76154 16.7545 7.61212 16.7545 9.64581L16.7545 20.3123C16.7545 22.346 15.9382 24.1942 14.6216 25.5369C13.3074 26.8773 11.4928 27.7122 9.49876 27.7122C7.50468 27.7122 5.69253 26.8797 4.37591 25.5369C3.06169 24.1966 2.24299 22.346 2.24299 20.3123L2.24299 9.64825C2.24299 7.61212 3.0593 5.76398 4.37591 4.4212Z" fill="#292929"/>
</svg>
