<svg width="104" height="77" viewBox="0 0 104 77" fill="none" xmlns="http://www.w3.org/2000/svg">
<path d="M103.226 70.3925V76.2532H80.9793V58.4427V57.9427H80.4793H23.4656H22.9656V58.4427V76.2532H0.5V0.5H70.1733C77.6842 0.5 83.5036 0.664961 88.0176 1.32037C92.5326 1.97592 95.6778 3.11416 97.8894 5.01136C100.091 6.90019 101.432 9.59706 102.217 13.5117C103.005 17.4363 103.226 22.5318 103.226 29.1644C103.226 34.838 102.542 38.5491 101.12 41.2089C99.709 43.8482 97.5378 45.5146 94.408 47.0245L93.5065 47.4594L94.3957 47.919C97.5898 49.57 99.7128 50.6847 101.111 53.5599C102.535 56.488 103.226 61.2874 103.226 70.3925ZM80.8697 19.1872V18.6872H80.3697H23.4656H22.9656V19.1872V39.2511V39.7511H23.4656H80.3697H80.8697V39.2511V19.1872Z" stroke="#1C6FF4"/>
</svg>
