<svg width="976" height="109" viewBox="0 0 976 109" fill="none" xmlns="http://www.w3.org/2000/svg">
<mask id="path-1-outside-1_530_8620" maskUnits="userSpaceOnUse" x="-1" y="-1" width="978" height="111" fill="black">
<rect fill="white" x="-1" y="-1" width="978" height="111"/>
<path d="M93.4863 93.2C82.9863 103.7 70.1363 108.95 54.9363 108.95C39.7363 108.95 26.8363 103.7 16.2363 93.2C5.73633 82.6 0.486328 69.7 0.486328 54.5C0.486328 39.3 5.73633 26.45 16.2363 15.95C26.8363 5.34999 39.7363 0.0499911 54.9363 0.0499911C70.1363 0.0499911 82.9863 5.34999 93.4863 15.95C104.086 26.45 109.386 39.3 109.386 54.5C109.386 69.7 104.086 82.6 93.4863 93.2ZM28.3863 81.5C35.5863 88.6 44.4363 92.15 54.9363 92.15C65.4363 92.15 74.2363 88.6 81.3363 81.5C88.5363 74.3 92.1363 65.3 92.1363 54.5C92.1363 43.7 88.5363 34.75 81.3363 27.65C74.2363 20.45 65.4363 16.85 54.9363 16.85C44.4363 16.85 35.5863 20.45 28.3863 27.65C21.2863 34.75 17.7363 43.7 17.7363 54.5C17.7363 65.3 21.2863 74.3 28.3863 81.5ZM229.092 99.05C221.692 105.65 212.142 108.95 200.442 108.95C188.742 108.95 179.192 105.65 171.792 99.05C164.392 92.35 160.692 83.4 160.692 72.2V1.99999H177.942V71.15C177.942 77.55 179.792 82.65 183.492 86.45C187.292 90.25 192.942 92.15 200.442 92.15C207.942 92.15 213.542 90.25 217.242 86.45C221.042 82.65 222.942 77.55 222.942 71.15V1.99999H240.192V72.2C240.192 83.4 236.492 92.35 229.092 99.05ZM357.383 107L335.183 68.75H314.783V107H297.533V1.99999H339.533C348.933 1.99999 356.883 5.3 363.383 11.9C369.983 18.4 373.283 26.35 373.283 35.75C373.283 42.45 371.333 48.6 367.433 54.2C363.633 59.7 358.633 63.7 352.433 66.2L376.283 107H357.383ZM314.783 18.2V53.3H339.533C344.133 53.3 348.033 51.6 351.233 48.2C354.433 44.8 356.033 40.65 356.033 35.75C356.033 30.85 354.433 26.7 351.233 23.3C348.033 19.9 344.133 18.2 339.533 18.2H314.783ZM570.275 1.99999V18.5H540.725V107H523.475V18.5H493.775V1.99999H570.275ZM637.781 90.5H684.281V107H620.531V1.99999H683.531V18.5H637.781V45.8H679.781V62.15H637.781V90.5ZM807.437 107L800.087 85.85H755.387L748.037 107H729.287L767.387 1.99999H788.087L826.037 107H807.437ZM761.087 69.65H794.387L777.737 22.25L761.087 69.65ZM975.328 1.99999V107H958.078V32.15L926.128 84.95H924.028L892.078 32V107H874.828V1.99999H893.428L925.078 54.5L956.878 1.99999H975.328Z"/>
</mask>
<path d="M93.4863 93.2L94.1934 93.9071L93.4863 93.2ZM16.2363 93.2L15.5258 93.9038L15.5326 93.9104L16.2363 93.2ZM16.2363 15.95L15.5292 15.2429L16.2363 15.95ZM93.4863 15.95L92.7758 16.6538L92.7826 16.6604L93.4863 15.95ZM28.3863 81.5L27.6742 82.2022L27.6842 82.212L28.3863 81.5ZM81.3363 81.5L80.6292 80.7929L81.3363 81.5ZM81.3363 27.65L80.6242 28.3522L80.6342 28.362L81.3363 27.65ZM28.3863 27.65L27.6792 26.9429L28.3863 27.65ZM92.7792 92.4929C82.4717 102.8 69.8781 107.95 54.9363 107.95V109.95C70.3945 109.95 83.501 104.6 94.1934 93.9071L92.7792 92.4929ZM54.9363 107.95C39.9944 107.95 27.3489 102.8 16.9401 92.4895L15.5326 93.9104C26.3237 104.6 39.4783 109.95 54.9363 109.95V107.95ZM16.9468 92.4963C6.63613 82.0874 1.48633 69.442 1.48633 54.5H-0.513672C-0.513672 69.958 4.83653 83.1126 15.5259 93.9037L16.9468 92.4963ZM1.48633 54.5C1.48633 39.5582 6.63588 26.9647 16.9434 16.6571L15.5292 15.2429C4.83678 25.9353 -0.513672 39.0418 -0.513672 54.5H1.48633ZM16.9434 16.6571C27.353 6.24755 39.9974 1.04999 54.9363 1.04999V-0.950008C39.4753 -0.950008 26.3197 4.45243 15.5292 15.2429L16.9434 16.6571ZM54.9363 1.04999C69.8751 1.04999 82.4676 6.24729 92.7759 16.6537L94.1968 15.2462C83.5051 4.4527 70.3976 -0.950008 54.9363 -0.950008V1.04999ZM92.7826 16.6604C103.189 26.9687 108.386 39.5612 108.386 54.5H110.386C110.386 39.0388 104.984 25.9313 94.1901 15.2395L92.7826 16.6604ZM108.386 54.5C108.386 69.4389 103.189 82.0834 92.7792 92.4929L94.1934 93.9071C104.984 83.1166 110.386 69.9611 110.386 54.5H108.386ZM27.6842 82.212C35.0792 89.5043 44.1848 93.15 54.9363 93.15V91.15C44.6879 91.15 36.0935 87.6957 29.0885 80.788L27.6842 82.212ZM54.9363 93.15C65.688 93.15 74.7466 89.504 82.0434 82.2071L80.6292 80.7929C73.7261 87.696 65.1846 91.15 54.9363 91.15V93.15ZM82.0434 82.2071C89.4432 74.8073 93.1363 65.5474 93.1363 54.5H91.1363C91.1363 65.0526 87.6294 73.7927 80.6292 80.7929L82.0434 82.2071ZM93.1363 54.5C93.1363 43.4526 89.443 34.2396 82.0385 26.938L80.6342 28.362C87.6297 35.2604 91.1363 43.9474 91.1363 54.5H93.1363ZM82.0484 26.9478C74.7525 19.5493 65.6925 15.85 54.9363 15.85V17.85C65.1802 17.85 73.7201 21.3507 80.6243 28.3521L82.0484 26.9478ZM54.9363 15.85C44.1804 15.85 35.0732 19.5489 27.6792 26.9429L29.0934 28.3571C36.0995 21.3511 44.6923 17.85 54.9363 17.85V15.85ZM27.6792 26.9429C20.3766 34.2455 16.7363 43.4569 16.7363 54.5H18.7363C18.7363 43.943 22.1961 35.2545 29.0934 28.3571L27.6792 26.9429ZM16.7363 54.5C16.7363 65.543 20.3763 74.8014 27.6743 82.2021L29.0984 80.7979C22.1963 73.7986 18.7363 65.057 18.7363 54.5H16.7363ZM229.092 99.05L229.758 99.7963L229.763 99.7913L229.092 99.05ZM171.792 99.05L171.121 99.7913L171.127 99.7963L171.792 99.05ZM160.692 1.99999V0.999992H159.692V1.99999H160.692ZM177.942 1.99999H178.942V0.999992H177.942V1.99999ZM183.492 86.45L182.776 87.1477L182.785 87.1571L183.492 86.45ZM217.242 86.45L216.535 85.7428L216.526 85.7524L217.242 86.45ZM222.942 1.99999V0.999992H221.942V1.99999H222.942ZM240.192 1.99999H241.192V0.999992H240.192V1.99999ZM228.427 98.3037C221.242 104.712 211.943 107.95 200.442 107.95V109.95C212.341 109.95 222.142 106.588 229.758 99.7963L228.427 98.3037ZM200.442 107.95C188.941 107.95 179.642 104.712 172.458 98.3037L171.127 99.7963C178.742 106.588 188.543 109.95 200.442 109.95V107.95ZM172.463 98.3087C165.3 91.8225 161.692 83.1558 161.692 72.2H159.692C159.692 83.6442 163.485 92.8775 171.121 99.7913L172.463 98.3087ZM161.692 72.2V1.99999H159.692V72.2H161.692ZM160.692 2.99999H177.942V0.999992H160.692V2.99999ZM176.942 1.99999V71.15H178.942V1.99999H176.942ZM176.942 71.15C176.942 77.7533 178.858 83.1235 182.776 87.1476L184.209 85.7524C180.727 82.1765 178.942 77.3467 178.942 71.15H176.942ZM182.785 87.1571C186.837 91.2085 192.784 93.15 200.442 93.15V91.15C193.101 91.15 187.748 89.2915 184.199 85.7429L182.785 87.1571ZM200.442 93.15C208.099 93.15 214.004 91.2094 217.959 87.1476L216.526 85.7524C213.081 89.2906 207.786 91.15 200.442 91.15V93.15ZM217.949 87.1571C221.972 83.1344 223.942 77.7609 223.942 71.15H221.942C221.942 77.3391 220.112 82.1656 216.535 85.7429L217.949 87.1571ZM223.942 71.15V1.99999H221.942V71.15H223.942ZM222.942 2.99999H240.192V0.999992H222.942V2.99999ZM239.192 1.99999V72.2H241.192V1.99999H239.192ZM239.192 72.2C239.192 83.1558 235.585 91.8225 228.421 98.3087L229.763 99.7913C237.4 92.8775 241.192 83.6442 241.192 72.2H239.192ZM357.383 107L356.518 107.502L356.807 108H357.383V107ZM335.183 68.75L336.048 68.248L335.759 67.75H335.183V68.75ZM314.783 68.75V67.75H313.783V68.75H314.783ZM314.783 107V108H315.783V107H314.783ZM297.533 107H296.533V108H297.533V107ZM297.533 1.99999V0.999992H296.533V1.99999H297.533ZM363.383 11.9L362.671 12.6017L362.676 12.6071L362.682 12.6125L363.383 11.9ZM367.433 54.2L366.613 53.6285L366.61 53.6316L367.433 54.2ZM352.433 66.2L352.059 65.2726L350.986 65.7054L351.57 66.7047L352.433 66.2ZM376.283 107V108H378.026L377.147 106.495L376.283 107ZM314.783 18.2V17.2H313.783V18.2H314.783ZM314.783 53.3H313.783V54.3H314.783V53.3ZM351.233 48.2L351.961 48.8854L351.233 48.2ZM351.233 23.3L351.961 22.6146L351.233 23.3ZM358.248 106.498L336.048 68.248L334.318 69.252L356.518 107.502L358.248 106.498ZM335.183 67.75H314.783V69.75H335.183V67.75ZM313.783 68.75V107H315.783V68.75H313.783ZM314.783 106H297.533V108H314.783V106ZM298.533 107V1.99999H296.533V107H298.533ZM297.533 2.99999H339.533V0.999992H297.533V2.99999ZM339.533 2.99999C348.67 2.99999 356.362 6.19567 362.671 12.6017L364.096 11.1983C357.405 4.40431 349.197 0.999992 339.533 0.999992V2.99999ZM362.682 12.6125C369.088 18.9214 372.283 26.6134 372.283 35.75H374.283C374.283 26.0866 370.879 17.8786 364.085 11.1875L362.682 12.6125ZM372.283 35.75C372.283 42.2416 370.398 48.1929 366.613 53.6285L368.254 54.7715C372.268 49.0071 374.283 42.6584 374.283 35.75H372.283ZM366.61 53.6316C362.922 58.9706 358.078 62.8457 352.059 65.2726L352.807 67.1274C359.189 64.5543 364.345 60.4294 368.256 54.7684L366.61 53.6316ZM351.57 66.7047L375.42 107.505L377.147 106.495L353.297 65.6953L351.57 66.7047ZM376.283 106H357.383V108H376.283V106ZM313.783 18.2V53.3H315.783V18.2H313.783ZM314.783 54.3H339.533V52.3H314.783V54.3ZM339.533 54.3C344.414 54.3 348.576 52.4827 351.961 48.8854L350.505 47.5146C347.491 50.7173 343.853 52.3 339.533 52.3V54.3ZM351.961 48.8854C355.345 45.29 357.033 40.8908 357.033 35.75H355.033C355.033 40.4092 353.521 44.31 350.505 47.5146L351.961 48.8854ZM357.033 35.75C357.033 30.6092 355.345 26.21 351.961 22.6146L350.505 23.9854C353.521 27.19 355.033 31.0908 355.033 35.75H357.033ZM351.961 22.6146C348.576 19.0173 344.414 17.2 339.533 17.2V19.2C343.853 19.2 347.491 20.7827 350.505 23.9854L351.961 22.6146ZM339.533 17.2H314.783V19.2H339.533V17.2ZM570.275 1.99999H571.275V0.999992H570.275V1.99999ZM570.275 18.5V19.5H571.275V18.5H570.275ZM540.725 18.5V17.5H539.725V18.5H540.725ZM540.725 107V108H541.725V107H540.725ZM523.475 107H522.475V108H523.475V107ZM523.475 18.5H524.475V17.5H523.475V18.5ZM493.775 18.5H492.775V19.5H493.775V18.5ZM493.775 1.99999V0.999992H492.775V1.99999H493.775ZM569.275 1.99999V18.5H571.275V1.99999H569.275ZM570.275 17.5H540.725V19.5H570.275V17.5ZM539.725 18.5V107H541.725V18.5H539.725ZM540.725 106H523.475V108H540.725V106ZM524.475 107V18.5H522.475V107H524.475ZM523.475 17.5H493.775V19.5H523.475V17.5ZM494.775 18.5V1.99999H492.775V18.5H494.775ZM493.775 2.99999H570.275V0.999992H493.775V2.99999ZM637.781 90.5H636.781V91.5H637.781V90.5ZM684.281 90.5H685.281V89.5H684.281V90.5ZM684.281 107V108H685.281V107H684.281ZM620.531 107H619.531V108H620.531V107ZM620.531 1.99999V0.999992H619.531V1.99999H620.531ZM683.531 1.99999H684.531V0.999992H683.531V1.99999ZM683.531 18.5V19.5H684.531V18.5H683.531ZM637.781 18.5V17.5H636.781V18.5H637.781ZM637.781 45.8H636.781V46.8H637.781V45.8ZM679.781 45.8H680.781V44.8H679.781V45.8ZM679.781 62.15V63.15H680.781V62.15H679.781ZM637.781 62.15V61.15H636.781V62.15H637.781ZM637.781 91.5H684.281V89.5H637.781V91.5ZM683.281 90.5V107H685.281V90.5H683.281ZM684.281 106H620.531V108H684.281V106ZM621.531 107V1.99999H619.531V107H621.531ZM620.531 2.99999H683.531V0.999992H620.531V2.99999ZM682.531 1.99999V18.5H684.531V1.99999H682.531ZM683.531 17.5H637.781V19.5H683.531V17.5ZM636.781 18.5V45.8H638.781V18.5H636.781ZM637.781 46.8H679.781V44.8H637.781V46.8ZM678.781 45.8V62.15H680.781V45.8H678.781ZM679.781 61.15H637.781V63.15H679.781V61.15ZM636.781 62.15V90.5H638.781V62.15H636.781ZM807.437 107L806.493 107.328L806.726 108H807.437V107ZM800.087 85.85L801.032 85.5217L800.798 84.85H800.087V85.85ZM755.387 85.85V84.85H754.676L754.443 85.5217L755.387 85.85ZM748.037 107V108H748.748L748.982 107.328L748.037 107ZM729.287 107L728.347 106.659L727.86 108H729.287V107ZM767.387 1.99999V0.999992H766.686L766.447 1.6589L767.387 1.99999ZM788.087 1.99999L789.028 1.66008L788.789 0.999992H788.087V1.99999ZM826.037 107V108H827.462L826.978 106.66L826.037 107ZM761.087 69.65L760.144 69.3186L759.676 70.65H761.087V69.65ZM794.387 69.65V70.65H795.798L795.331 69.3186L794.387 69.65ZM777.737 22.25L778.681 21.9186L777.737 19.2326L776.794 21.9186L777.737 22.25ZM808.382 106.672L801.032 85.5217L799.143 86.1783L806.493 107.328L808.382 106.672ZM800.087 84.85H755.387V86.85H800.087V84.85ZM754.443 85.5217L747.093 106.672L748.982 107.328L756.332 86.1783L754.443 85.5217ZM748.037 106H729.287V108H748.037V106ZM730.227 107.341L768.327 2.34109L766.447 1.6589L728.347 106.659L730.227 107.341ZM767.387 2.99999H788.087V0.999992H767.387V2.99999ZM787.147 2.3399L825.097 107.34L826.978 106.66L789.028 1.66008L787.147 2.3399ZM826.037 106H807.437V108H826.037V106ZM761.087 70.65H794.387V68.65H761.087V70.65ZM795.331 69.3186L778.681 21.9186L776.794 22.5814L793.444 69.9814L795.331 69.3186ZM776.794 21.9186L760.144 69.3186L762.031 69.9814L778.681 22.5814L776.794 21.9186ZM975.328 1.99999H976.328V0.999992H975.328V1.99999ZM975.328 107V108H976.328V107H975.328ZM958.078 107H957.078V108H958.078V107ZM958.078 32.15H959.078V28.5658L957.223 31.6323L958.078 32.15ZM926.128 84.95V85.95H926.692L926.984 85.4677L926.128 84.95ZM924.028 84.95L923.172 85.4666L923.464 85.95H924.028V84.95ZM892.078 32L892.934 31.4834L891.078 28.4071V32H892.078ZM892.078 107V108H893.078V107H892.078ZM874.828 107H873.828V108H874.828V107ZM874.828 1.99999V0.999992H873.828V1.99999H874.828ZM893.428 1.99999L894.285 1.4837L893.993 0.999992H893.428V1.99999ZM925.078 54.5L924.222 55.0163L925.076 56.4335L925.933 55.0181L925.078 54.5ZM956.878 1.99999V0.999992H956.315L956.023 1.48191L956.878 1.99999ZM974.328 1.99999V107H976.328V1.99999H974.328ZM975.328 106H958.078V108H975.328V106ZM959.078 107V32.15H957.078V107H959.078ZM957.223 31.6323L925.273 84.4323L926.984 85.4677L958.934 32.6677L957.223 31.6323ZM926.128 83.95H924.028V85.95H926.128V83.95ZM924.884 84.4334L892.934 31.4834L891.222 32.5166L923.172 85.4666L924.884 84.4334ZM891.078 32V107H893.078V32H891.078ZM892.078 106H874.828V108H892.078V106ZM875.828 107V1.99999H873.828V107H875.828ZM874.828 2.99999H893.428V0.999992H874.828V2.99999ZM892.572 2.51629L924.222 55.0163L925.935 53.9837L894.285 1.4837L892.572 2.51629ZM925.933 55.0181L957.733 2.51808L956.023 1.48191L924.223 53.9819L925.933 55.0181ZM956.878 2.99999H975.328V0.999992H956.878V2.99999Z" fill="#A3A3A3" mask="url(#path-1-outside-1_530_8620)"/>
</svg>
