<svg width="22" height="22" viewBox="0 0 22 22" fill="none" xmlns="http://www.w3.org/2000/svg">
<path d="M16.9976 6.16C16.9376 6.15 16.8676 6.15 16.8076 6.16C15.4276 6.11 14.3276 4.98 14.3276 3.58C14.3276 2.15 15.4776 1 16.9076 1C18.3376 1 19.4876 2.16 19.4876 3.58C19.4776 4.98 18.3776 6.11 16.9976 6.16Z" stroke="#989898" stroke-linecap="round" stroke-linejoin="round"/>
<path d="M15.9676 13.44C17.3376 13.67 18.8476 13.43 19.9076 12.72C21.3176 11.78 21.3176 10.24 19.9076 9.30004C18.8376 8.59004 17.3076 8.35003 15.9376 8.59003" stroke="#989898" stroke-linecap="round" stroke-linejoin="round"/>
<path d="M4.96748 6.16C5.02748 6.15 5.09748 6.15 5.15748 6.16C6.53748 6.11 7.63748 4.98 7.63748 3.58C7.63748 2.15 6.48748 1 5.05748 1C3.62748 1 2.47748 2.16 2.47748 3.58C2.48748 4.98 3.58748 6.11 4.96748 6.16Z" stroke="#989898" stroke-linecap="round" stroke-linejoin="round"/>
<path d="M5.9975 13.44C4.6275 13.67 3.1175 13.43 2.0575 12.72C0.6475 11.78 0.6475 10.24 2.0575 9.30004C3.1275 8.59004 4.6575 8.35003 6.0275 8.59003" stroke="#989898" stroke-linecap="round" stroke-linejoin="round"/>
<path d="M10.9975 13.63C10.9375 13.62 10.8675 13.62 10.8075 13.63C9.42751 13.58 8.32751 12.45 8.32751 11.05C8.32751 9.61997 9.47751 8.46997 10.9075 8.46997C12.3375 8.46997 13.4875 9.62997 13.4875 11.05C13.4775 12.45 12.3775 13.59 10.9975 13.63Z" stroke="#989898" stroke-linecap="round" stroke-linejoin="round"/>
<path d="M8.08753 16.78C6.67753 17.72 6.67753 19.26 8.08753 20.2C9.68753 21.27 12.3075 21.27 13.9075 20.2C15.3175 19.26 15.3175 17.72 13.9075 16.78C12.3175 15.72 9.68753 15.72 8.08753 16.78Z" stroke="#989898" stroke-linecap="round" stroke-linejoin="round"/>
</svg>
